<?xml version="1.0" encoding="UTF-8"?>
<svg id="Moneybox_Horizontal_Logo" xmlns="http://www.w3.org/2000/svg" version="1.1" viewBox="0 0 1149.2 196">
  <!-- Generator: Adobe Illustrator 29.6.1, SVG Export Plug-In . SVG Version: 2.1.1 Build 9)  -->
  <defs>
    <style>
      .st0 {
        fill: #fff;
      }

      .st1 {
        fill: #022828;
      }

      .st2 {
        fill: #78e3df;
      }

      .st3 {
        fill: #468c89;
      }
    </style>
  </defs>
  <rect class="st0" x="-19.5" y="-21.5" width="1184.3" height="235.6"/>
  <g>
    <g>
      <path class="st3" d="M21,160c23.5,13.6,53.3-5.5,73-42.4h0c-25.4-17.9-52.4-31.4-94-31.4v39.2c0,13.7,7.3,26.6,19.2,33.5l20,11.5h0l-18.2-10.5h0Z"/>
      <path class="st1" d="M94,117.6s0,0,0,0h0c-19.7,36.9-49.5,56-73,42.4h0s18.2,10.5,18.2,10.5l35.6,20.6c11.4,6.6,27,6.6,38.4,0l55.6-32.1c11.9-6.9,19.2-19.8,19.2-33.5V39.2c-53.7,9.8-74.3,41.5-94,78.4Z"/>
      <path class="st2" d="M74.3,70.6c19.5,0,35.3-15.8,35.3-35.3S93.8,0,74.3,0s-35.3,15.8-35.3,35.3,15.8,35.3,35.3,35.3c0,0,0,0,0,0Z"/>
    </g>
    <path class="st1" d="M400.5,39v125h-24.9v-95.2c-9.1,18-23.2,55.4-35.3,95.2h-17.1c-12.1-39.8-26.2-77.2-35.3-95.2v95.2h-24.9V39h35.9c14.2,30.2,22.8,54.1,31.9,85.7l1,4.1,1-4.1c9.1-31.7,17.7-55.6,31.9-85.7h35.9ZM1002.1,146.4c-13.5,0-25.9-10-25.9-28.8s12.3-28.9,25.9-28.9,25.9,10.1,25.9,28.9-12.5,28.8-25.9,28.8ZM1002.1,166.2c32.3,0,51.4-21.5,51.4-48.7s-19.6-48.9-51.4-48.9-51.3,21.7-51.3,48.9,19,48.7,51.3,48.7h0ZM1099,134.6l21.3,29.4h28.9l-34.4-47.2,33.9-45.8h-25.5l-20.6,29.1-21.2-29.1h-29l34.1,46.7-34.5,46.3h26l21-29.4h0ZM865,39h-24.7v125h16.1l3.7-14.4c7.8,11.7,20.7,16.6,35.3,16.6,26.1,0,46.3-20.6,46.3-49s-20.2-48.6-46.3-48.6-23.2,4.2-30.4,12.4v-42.1h0ZM916.4,117.5c0,18.6-12.3,28.8-25.9,28.8s-26-10-26-28.8,12.5-28.9,26-28.9c13.5,0,25.9,10.1,25.9,28.9ZM464.5,146.4c-13.5,0-25.9-10-25.9-28.8s12.3-28.9,25.9-28.9,26,10.1,26,28.9-12.5,28.8-26,28.8ZM464.5,166.2c32.3,0,51.4-21.5,51.4-48.7s-19.6-48.9-51.4-48.9-51.3,21.7-51.3,48.9,19,48.7,51.3,48.7ZM660.2,105.8c3.3-13,12.5-19.6,23.7-19.6s20.2,8.7,21.8,19.6h-45.5,0ZM684.5,166.2c30,0,44.4-17.3,46.7-35.1h-23.5c-2.7,9.8-9.9,17.1-22.8,17.1s-24.5-8.8-25.7-27.1h72.3c.6-29.7-15.2-52.3-47.5-52.3s-50.1,21.7-50.1,48.9,20.6,48.7,50.6,48.7h0ZM528.6,71v93h26.1v-46.8c0-17.8,10.4-27,23-27s17.4,6.7,17.4,24.2v49.6h26.1v-55.9c0-25.6-11.7-39.4-34-39.4s-25.9,5-33.7,16.5l-1.1-14.2h-23.7c0,0,0,0,0,0h0ZM807,71c-7,22.8-14.5,43-23.2,63.4-8.8-20.6-16.3-40.8-23.2-63.4h-27.3c10.8,33.9,22.6,61.8,38,93-3.4,7.2-7.6,10.2-15.9,10.2s-9.2-.4-16.3-1.5v21.5c6.5,1.1,10.7,1.9,19.4,1.9s10.9-.9,15.8-3.4c5.1-2.7,9-7,12.1-11.7,1.8-2.8,3.5-5.8,5-8.8,5.8-11.7,11-23.7,16-35.7,6.3-14.8,12-29.9,17.1-45.2,2.2-6.7,4.4-13.4,6.4-20.2h-23.8Z"/>
  </g>
</svg>