<?xml version="1.0" encoding="utf-8"?>
<!-- Generator: Adobe Illustrator 29.5.1, SVG Export Plug-In . SVG Version: 9.03 Build 0)  -->
<svg version="1.1" id="Moneybox_Horizontal_Logo" xmlns="http://www.w3.org/2000/svg" xmlns:xlink="http://www.w3.org/1999/xlink"
	 x="0px" y="0px" viewBox="0 0 1149.23279 196" style="enable-background:new 0 0 1149.23279 196;" xml:space="preserve">
<style type="text/css">
	.st0{fill:#468C89;}
	.st1{fill:#E9F1EF;}
	.st2{fill:#78E3DF;}
</style>
<g>
	<g>
		<path class="st0" d="M20.99041,159.97742c23.49833,13.58093,53.26896-5.48737,73.00864-42.37086l0,0l-0.00072-0.00502
			C68.60908,99.71646,41.59642,86.24726,0,86.24726v39.2033c0,13.73862,7.32271,26.63354,19.20826,33.50131l19.95865,11.53271
			h0.00048L20.98826,159.9791l0.00215-0.00166L20.99041,159.97742z"/>
		<path class="st1" d="M94.0043,117.59722c-0.00167,0.00311-0.00359,0.00622-0.00526,0.00933l0,0
			c-19.73967,36.8835-49.51031,55.9518-73.00864,42.37086l-0.00215,0.00166l18.17913,10.50549l35.62627,20.5882
			c11.36106,6.56963,27.02773,6.56963,38.41651,0l55.58157-32.12044C180.67728,152.08218,188,139.18677,188,125.45055V39.20333
			C134.27612,48.97353,113.74135,80.70847,94.0043,117.59722z"/>
		<path class="st2" d="M74.31078,70.56359c19.48625,0,35.28262-15.79657,35.28262-35.28304S93.79703,0,74.31078,0
			S39.02745,15.79637,39.02745,35.28284s15.79649,35.2831,35.28333,35.2831V70.56359z"/>
	</g>
	<path class="st1" d="M400.54395,39v125h-24.90875V68.77478C366.5083,86.79504,352.39746,124.19067,340.33093,164h-17.11792
		c-12.06653-39.80933-26.17737-77.20496-35.30426-95.22522V164H263V39h35.85663
		c14.19128,30.18414,22.76886,54.05469,31.91785,85.74097l0.9975,4.09784l0.9975-4.09784
		C341.91846,93.05469,350.49603,69.18414,364.68738,39H400.54395z M1002.1297,146.3902
		c-13.49512,0-25.87659-10.01019-25.87659-28.84241s12.30695-28.91715,25.87659-28.91715
		c13.57257,0,25.94696,10.08453,25.94696,28.91715C1028.07666,136.1949,1015.62183,146.3902,1002.1297,146.3902z
		 M1002.1297,166.22243c32.25494,0,51.37982-21.46204,51.37982-48.67464s-19.60791-48.86246-51.37988-48.86246
		c-31.77002,0-51.27026,21.65188-51.27026,48.86246c0,27.02548,19.01733,48.67464,51.27026,48.67464H1002.1297z
		 M1099.01099,134.56914l21.34827,29.43088h28.87354l-34.35645-47.15143l33.88367-45.84857h-25.47314l-20.604,29.05441
		l-21.24768-29.05441h-28.99426l34.07483,46.66347l-34.54773,46.33653h26.01636l21.02649-29.43088l0,0H1099.01099z
		 M865.01801,39.00006h-24.7287V164h16.09076l3.67004-14.41862c7.78381,11.6772,20.6853,16.64507,35.32837,16.64507
		c26.13611,0,46.34167-20.61394,46.34167-48.97242s-20.20551-48.56427-46.34167-48.56427
		c-12.82605,0-23.16724,4.2248-30.36053,12.41776V39.00006L865.01801,39.00006z M916.39789,117.5488
		c0,18.64812-12.30695,28.84241-25.87659,28.84241c-13.56854,0-25.95099-10.00919-25.95099-28.8424
		c0-18.83202,12.45691-28.91664,25.95099-28.91664C904.01642,88.63216,916.39789,98.71678,916.39789,117.5488z M464.5015,146.3902
		c-13.49411,0-25.87659-10.01019-25.87659-28.84241s12.30801-28.91715,25.87659-28.91715
		c13.56958,0,25.952,10.08453,25.952,28.91715C490.45349,136.1949,477.99661,146.3902,464.5015,146.3902z M464.5015,166.22243
		c32.2529,0,51.38089-21.46204,51.38089-48.67464s-19.61087-48.86246-51.38089-48.86246s-51.27023,21.65188-51.27023,48.86246
		C413.23126,144.57327,432.2496,166.22243,464.5015,166.22243z M660.2124,105.75891
		c3.33502-13.04694,12.49518-19.64661,23.68939-19.64661c12.71545,0,20.20447,8.74799,21.79803,19.64661h-45.48749H660.2124z
		 M684.45618,166.22243c30.02753,0,44.4472-17.31107,46.67255-35.14429h-23.466c-2.74152,9.82506-9.89954,17.05453-22.8363,17.05453
		s-24.50433-8.78683-25.72766-27.09993h72.3288c0.55737-29.69593-15.16315-52.34741-47.5257-52.34741
		c-30.5849,0-50.08606,21.65188-50.08606,48.86246c0,27.02548,20.61389,48.67464,50.64044,48.67464H684.45618z M528.57031,71.00001
		V164h26.09894v-46.82849c0-17.75746,10.37335-27.01703,22.95398-27.01703c11.66211,0,17.4057,6.66145,17.4057,24.24335v49.60216
		h26.09888v-55.89297c0-25.55171-11.66309-39.4217-34.04968-39.4217c-14.80804,0-25.90375,5.00097-33.67847,16.46811L552.28595,71
		l-23.69647-0.0877L528.57037,71L528.57031,71.00001z M806.97681,71c-6.96655,22.79395-14.46735,42.98993-23.21399,63.40875
		C774.94604,113.77283,767.43457,93.58752,760.53986,71h-27.31152c10.80127,33.8974,22.62604,61.76459,37.97101,92.98877
		c-3.36255,7.20819-7.62787,10.18115-15.94757,10.18115c-6.10449,0-9.25-0.37012-16.2793-1.47949v21.45898
		C745.44708,195.25977,749.70197,196,758.39722,196c5.42798,0,10.91364-0.8689,15.76007-3.41913
		c5.07526-2.67072,9.02026-6.95795,12.13379-11.70776c1.84283-2.81128,3.46344-5.78558,4.97021-8.82861
		c5.77496-11.66284,10.9704-23.69232,16.04669-35.6734c6.28668-14.83789,12.01898-29.90662,17.12329-45.1922
		c2.23407-6.69031,4.35229-13.41919,6.36334-20.17889H806.97681z"/>
</g>
</svg>
